<svg xmlns="http://www.w3.org/2000/svg" viewBox="0 0 530 530"><defs><style>.cls-1{fill:#fff;}</style></defs><g id="Layer_2" data-name="Layer 2"><g id="Layer_1-2" data-name="Layer 1"><rect class="cls-1" x="10" y="10" width="510" height="510" rx="82.78"/><path d="M437.22,20A72.86,72.86,0,0,1,510,92.78V437.22A72.86,72.86,0,0,1,437.22,510H92.78A72.86,72.86,0,0,1,20,437.22V92.78A72.86,72.86,0,0,1,92.78,20H437.22m0-20H92.78A92.78,92.78,0,0,0,0,92.78V437.22A92.78,92.78,0,0,0,92.78,530H437.22A92.78,92.78,0,0,0,530,437.22V92.78A92.78,92.78,0,0,0,437.22,0Z"/><circle cx="166.5" cy="166.5" r="41.7"/><path d="M166.5,132.3a34.2,34.2,0,1,1-34.2,34.2,34.24,34.24,0,0,1,34.2-34.2m0-15h0a49.2,49.2,0,0,0-49.2,49.2h0a49.2,49.2,0,0,0,49.2,49.2h0a49.2,49.2,0,0,0,49.2-49.2h0a49.2,49.2,0,0,0-49.2-49.2Z"/><circle cx="355.78" cy="355.78" r="41.7" transform="translate(-147.37 355.78) rotate(-45)"/><path d="M355.78,321.58a34.2,34.2,0,1,1-34.2,34.2,34.24,34.24,0,0,1,34.2-34.2m0-15h0a49.2,49.2,0,0,0-49.2,49.2h0a49.2,49.2,0,0,0,49.2,49.2h0a49.19,49.19,0,0,0,49.2-49.2h0a49.2,49.2,0,0,0-49.2-49.2Z"/></g></g></svg>