<svg xmlns="http://www.w3.org/2000/svg" viewBox="0 0 530 530"><defs><style>.cls-1{fill:#fff;}</style></defs><g id="Layer_2" data-name="Layer 2"><g id="Layer_1-2" data-name="Layer 1"><rect class="cls-1" x="10" y="10" width="510" height="510" rx="82.78"/><path d="M437.22,20A72.86,72.86,0,0,1,510,92.78V437.22A72.86,72.86,0,0,1,437.22,510H92.78A72.86,72.86,0,0,1,20,437.22V92.78A72.86,72.86,0,0,1,92.78,20H437.22m0-20H92.78A92.78,92.78,0,0,0,0,92.78V437.22A92.78,92.78,0,0,0,92.78,530H437.22A92.78,92.78,0,0,0,530,437.22V92.78A92.78,92.78,0,0,0,437.22,0Z"/><path d="M117.78,159.48a41.7,41.7,0,1,1,41.7-41.7A41.75,41.75,0,0,1,117.78,159.48Z"/><path d="M117.78,83.58a34.2,34.2,0,1,1-34.2,34.2,34.24,34.24,0,0,1,34.2-34.2m0-15h0a49.2,49.2,0,0,0-49.2,49.2h0a49.2,49.2,0,0,0,49.2,49.2h0a49.19,49.19,0,0,0,49.2-49.2h0a49.2,49.2,0,0,0-49.2-49.2Z"/><circle cx="411.78" cy="117.78" r="41.7"/><path d="M411.78,83.58a34.2,34.2,0,1,1-34.2,34.2,34.24,34.24,0,0,1,34.2-34.2m0-15h0a49.2,49.2,0,0,0-49.2,49.2h0a49.2,49.2,0,0,0,49.2,49.2h0a49.19,49.19,0,0,0,49.2-49.2h0a49.2,49.2,0,0,0-49.2-49.2Z"/><path d="M412,452.7A41.7,41.7,0,1,1,453.7,411,41.75,41.75,0,0,1,412,452.7Z"/><path d="M412,376.8A34.2,34.2,0,1,1,377.8,411,34.24,34.24,0,0,1,412,376.8m0-15A49.2,49.2,0,0,0,362.8,411h0a49.2,49.2,0,0,0,98.4,0h0A49.2,49.2,0,0,0,412,361.8Z"/><circle cx="118" cy="411" r="41.7" transform="translate(-256.06 203.82) rotate(-45)"/><path d="M118,376.8A34.2,34.2,0,1,1,83.8,411,34.24,34.24,0,0,1,118,376.8m0-15h0A49.2,49.2,0,0,0,68.8,411h0A49.2,49.2,0,0,0,118,460.2h0A49.2,49.2,0,0,0,167.2,411h0A49.2,49.2,0,0,0,118,361.8Z"/></g></g></svg>